<?xml version="1.0" standalone="no"?>
<!DOCTYPE svg PUBLIC "-//W3C//DTD SVG 20010904//EN"
 "http://www.w3.org/TR/2001/REC-SVG-20010904/DTD/svg10.dtd">
<svg version="1.0" xmlns="http://www.w3.org/2000/svg"
 width="460.000000pt" height="423.000000pt" viewBox="0 0 460.000000 423.000000"
 preserveAspectRatio="xMidYMid meet">

<g transform="translate(0.000000,423.000000) scale(0.100000,-0.100000)"
fill="#000000" stroke="none">
<path d="M0 4195 c0 -32 28 -119 64 -198 16 -35 55 -149 82 -239 l17 -58 42 0
c79 0 120 45 145 160 4 19 11 44 16 55 7 19 7 19 -9 3 -10 -9 -22 -42 -29 -72
-11 -57 -38 -98 -38 -58 0 11 -7 25 -15 32 -8 7 -15 17 -15 22 0 6 -11 23 -25
40 -14 16 -25 42 -25 58 0 16 -4 32 -10 35 -5 3 -10 26 -10 51 0 35 -4 44 -17
44 -10 0 -26 7 -36 14 -18 14 -18 14 1 20 11 4 22 18 25 32 4 23 2 25 -19 20
-16 -4 -30 0 -44 14 -21 21 -19 40 5 40 8 0 17 5 20 10 4 6 -18 10 -59 10
l-66 0 0 -35z"/>
<path d="M377 4173 c7 -150 16 -191 34 -162 7 11 9 11 9 -1 0 -21 -12 -35 -34
-43 -14 -6 -16 -10 -7 -21 8 -9 11 -85 9 -251 l-3 -238 -74 2 -74 2 8 -38 c4
-21 8 -47 9 -59 1 -19 3 -20 21 -9 27 18 130 8 115 -10 -6 -7 -38 -18 -71 -25
-51 -11 -60 -16 -56 -32 3 -10 1 -18 -4 -18 -5 0 -9 -7 -9 -15 0 -8 5 -15 10
-15 6 0 10 -5 10 -11 0 -5 -4 -8 -9 -5 -5 3 -15 -1 -22 -10 -17 -20 -23 -64
-9 -64 5 0 10 5 10 10 0 7 8 7 22 -1 l21 -11 -21 -17 c-12 -9 -18 -21 -14 -28
4 -6 6 -32 4 -57 -3 -33 -8 -46 -19 -46 -10 0 -14 6 -10 20 3 12 -1 24 -11 29
-13 7 -14 14 -6 32 8 18 6 35 -6 70 -13 35 -15 50 -7 58 9 9 6 13 -11 17 -29
8 -28 24 1 24 27 0 52 41 36 57 -6 6 -4 21 7 40 10 16 14 37 11 47 -9 22 -27
11 -27 -17 -1 -16 -18 -33 -65 -63 -43 -28 -65 -37 -65 -28 0 8 7 17 15 20 19
8 20 44 1 44 -8 0 -17 6 -19 13 -4 10 -6 10 -6 0 -1 -7 -9 -13 -18 -13 -10 0
-26 -7 -35 -14 -16 -12 -18 -32 -18 -160 0 -80 2 -146 5 -146 12 0 55 24 55
31 0 4 -8 13 -18 18 -15 9 -13 10 9 11 20 0 31 8 43 35 22 46 40 57 32 18 -5
-22 -2 -34 14 -48 11 -10 20 -28 20 -41 0 -20 -6 -22 -80 -29 -74 -7 -80 -9
-80 -29 0 -29 22 -76 36 -76 6 0 19 8 28 19 16 17 16 19 -6 26 -20 6 -17 9 22
17 25 5 59 10 77 11 28 0 31 3 22 19 -10 19 -5 38 12 38 5 0 9 -9 9 -19 0 -11
4 -22 9 -25 4 -3 6 -18 3 -32 -4 -22 -2 -26 11 -21 9 3 19 2 22 -4 4 -5 1 -8
-7 -7 -8 2 -14 -10 -16 -33 -2 -28 -8 -38 -24 -42 -16 -4 -19 -10 -12 -19 6
-7 9 -23 8 -35 0 -13 3 -23 7 -23 5 0 9 -11 9 -25 0 -15 -6 -25 -14 -25 -21 0
-24 -28 -8 -90 11 -43 12 -64 3 -98 -6 -23 -11 -53 -11 -65 0 -13 -4 -27 -10
-33 -16 -16 -28 -100 -18 -118 6 -11 5 -22 -3 -32 -9 -11 -9 -18 4 -32 18 -20
13 -52 -13 -88 -16 -23 -60 -38 -60 -22 0 6 -6 5 -15 -2 -8 -7 -15 -18 -15
-25 0 -8 -11 -22 -24 -33 l-24 -18 -2 -272 c-1 -215 2 -272 12 -274 7 0 18 -2
24 -2 6 -1 18 -6 25 -12 8 -6 35 -15 61 -18 45 -7 90 -36 54 -36 -9 0 -16 -8
-16 -18 0 -33 -31 -47 -98 -47 l-62 1 0 -102 c0 -73 4 -104 13 -107 9 -4 9 -6
0 -6 -7 -1 -13 -7 -13 -14 0 -8 32 -22 75 -35 141 -42 345 -155 345 -191 0
-11 7 -21 15 -24 20 -8 56 -83 49 -102 -4 -9 -2 -15 4 -13 5 2 34 -33 63 -77
55 -80 85 -106 189 -161 30 -16 57 -31 60 -34 3 -3 28 -17 55 -30 28 -14 52
-27 55 -30 14 -15 61 -40 75 -40 9 0 27 -7 40 -16 13 -9 30 -14 37 -11 8 4 6
6 -4 6 -20 1 -24 17 -7 23 7 2 5 9 -5 17 -11 9 -16 10 -16 2 0 -19 -39 -12
-50 9 -6 11 -19 20 -29 20 -10 0 -26 9 -36 20 -10 11 -23 20 -28 20 -6 0 -25
11 -44 26 -18 14 -37 23 -42 19 -16 -9 -25 16 -10 27 11 8 10 8 -4 4 -25 -8
-44 4 -26 15 10 6 6 9 -14 9 -20 0 -30 7 -37 24 -5 13 -17 30 -27 38 -22 16
-43 52 -43 73 0 9 -4 13 -10 10 -5 -3 -10 -1 -10 6 0 14 -40 101 -50 109 -3 3
-6 28 -6 55 1 52 39 135 62 135 7 0 14 7 18 15 3 8 13 15 21 15 9 0 14 4 10 9
-11 18 17 22 173 27 155 4 272 20 272 37 0 4 10 5 22 1 19 -6 21 -5 11 8 -16
19 -7 28 27 28 15 0 33 7 40 16 22 26 53 38 95 35 42 -2 164 -40 228 -71 l38
-18 -22 -16 c-27 -19 -17 -36 11 -18 25 16 41 15 35 -1 -4 -9 7 -11 41 -8 57
4 181 -23 251 -55 29 -13 64 -26 78 -30 14 -3 25 -10 25 -15 0 -5 6 -9 13 -9
14 0 70 -24 160 -70 32 -17 65 -30 73 -30 8 0 32 -9 52 -19 55 -29 150 -67
210 -85 43 -12 52 -13 52 -1 0 7 -8 16 -18 19 -10 3 -40 28 -67 56 -31 30 -59
50 -73 50 -12 0 -34 8 -48 17 -18 12 -28 13 -33 5 -17 -27 -141 44 -141 81 0
12 -27 37 -32 31 -3 -2 -11 46 -17 108 -7 62 -17 124 -23 138 -24 55 -27 67
-37 118 -13 65 -13 74 1 42 11 -25 11 -25 15 -2 3 12 9 22 15 22 6 0 8 9 5 20
-3 11 -2 20 2 20 13 0 31 -24 31 -41 0 -10 5 -19 10 -21 6 -2 13 -26 17 -55 5
-49 5 -52 -16 -46 -12 3 -26 15 -32 26 -9 15 -13 17 -19 6 -6 -8 0 -21 17 -37
19 -17 23 -26 14 -31 -8 -5 -10 -18 -4 -37 4 -16 7 -31 8 -34 1 -16 29 -70 36
-70 4 0 9 12 11 27 l3 27 29 -39 c16 -21 35 -61 41 -89 15 -60 35 -106 47
-106 11 0 10 55 -3 109 -7 33 -7 46 2 52 7 4 14 26 15 48 1 23 7 48 14 56 7 9
10 18 6 22 -3 4 -13 -2 -21 -13 -8 -10 -15 -14 -15 -8 0 5 5 15 11 21 6 6 8
16 5 22 -11 17 -26 13 -20 -4 4 -10 0 -15 -11 -15 -12 0 -15 5 -10 20 4 13 -1
30 -14 46 -19 25 -21 25 -21 6 0 -11 4 -22 10 -24 6 -2 6 -15 1 -33 -7 -29 -8
-29 -15 -7 -4 12 -12 22 -17 22 -5 0 -9 9 -9 20 0 29 -29 151 -41 174 -12 20
1 16 33 -12 17 -14 18 -12 18 36 0 28 5 54 10 57 6 3 10 -1 10 -10 0 -9 6 -15
12 -12 8 2 13 22 13 48 l0 44 42 3 c28 2 46 9 52 20 8 15 23 17 102 15 69 -3
98 0 115 12 25 16 60 20 66 8 2 -5 23 -15 48 -24 25 -10 53 -20 63 -24 11 -5
17 -2 17 8 0 19 -157 96 -229 112 -17 3 -33 11 -36 16 -4 5 -13 9 -21 9 -8 0
-31 17 -51 37 -29 29 -37 44 -38 74 0 20 -3 35 -6 33 -3 -2 -1 14 4 35 12 43
36 63 87 68 48 5 126 29 180 56 35 17 44 27 43 44 -2 18 5 24 40 34 23 6 61
17 84 24 23 8 51 11 63 8 14 -4 20 -1 18 8 -2 9 6 14 25 14 15 -1 27 3 27 8 0
5 6 7 13 4 6 -2 32 2 55 9 24 7 51 10 60 7 40 -13 109 -49 126 -65 12 -11 27
-16 39 -12 10 3 26 -1 35 -9 20 -17 120 -21 139 -5 10 8 13 6 13 -6 0 -19 1
-19 37 -5 60 23 129 34 231 37 37 1 52 6 52 16 0 7 8 17 18 20 9 3 28 13 42
21 26 15 124 11 146 -6 6 -5 34 -5 64 1 29 5 78 10 109 11 54 1 55 1 23 12
-37 11 -38 32 -1 33 13 0 49 4 79 7 l55 7 -50 -25 c-59 -29 -59 -29 75 -9 58
9 116 17 130 19 61 7 110 18 110 25 0 4 9 10 20 13 20 5 20 14 20 712 l0 708
-26 24 c-56 52 -132 101 -189 123 -33 12 -94 39 -135 58 -89 42 -180 55 -209
28 -9 -9 -32 -19 -50 -22 l-34 -7 8 106 7 107 -104 0 -104 0 -11 -115 c-7 -63
-16 -122 -22 -132 -9 -18 -43 -38 -108 -64 -24 -10 -41 -31 -70 -86 -21 -40
-46 -76 -55 -79 -10 -3 -18 -12 -18 -20 0 -9 5 -12 12 -8 8 5 9 2 5 -10 -4
-10 -7 -20 -7 -22 0 -2 -6 -4 -13 -4 -15 0 -37 -41 -37 -69 0 -10 -9 -26 -20
-36 -16 -15 -22 -15 -35 -5 -18 15 -20 76 -2 84 6 3 0 3 -15 0 -22 -5 -28 -2
-28 10 0 12 -6 15 -25 10 -35 -9 -46 23 -17 47 12 9 22 28 22 41 0 21 -2 20
-16 -9 -9 -17 -24 -39 -33 -47 -16 -15 -21 -15 -49 0 -17 8 -34 20 -38 25 -4
6 -11 6 -19 -1 -10 -8 -19 -8 -34 2 -12 7 -21 16 -21 21 0 4 -5 5 -11 1 -13
-8 -8 46 11 126 6 25 17 102 23 172 7 69 15 130 20 134 4 4 7 2 7 -5 0 -7 4
-10 9 -7 18 11 0 41 -25 42 -21 2 -24 -2 -22 -25 2 -18 -2 -26 -12 -26 -10 0
-14 8 -12 27 3 23 0 27 -20 25 -29 -1 -38 -14 -38 -52 0 -17 -5 -36 -12 -43
-8 -8 -8 -15 -1 -24 8 -9 8 -60 3 -158 -4 -80 -6 -148 -4 -151 5 -9 -16 -25
-43 -33 -16 -5 -23 -2 -26 11 -4 14 -5 13 -6 -5 -1 -25 -35 -43 -90 -48 -18
-2 -41 -10 -50 -19 -22 -19 -31 -19 -48 3 -13 16 -14 16 -8 -4 5 -19 -5 -26
-88 -63 -5 -2 -2 10 5 25 9 18 15 63 16 114 0 62 -1 75 -7 49 -4 -21 -15 -44
-24 -54 -9 -9 -17 -24 -17 -34 0 -10 -9 -26 -19 -35 -11 -10 -23 -31 -26 -47
-4 -16 -10 -31 -15 -34 -4 -3 -22 -33 -40 -67 -31 -59 -67 -114 -137 -208 -18
-25 -36 -53 -39 -62 -4 -10 -13 -18 -20 -18 -17 0 -18 4 5 -61 22 -65 52 -119
66 -119 6 0 8 -21 6 -52 -3 -43 -6 -48 -12 -28 -4 14 -7 19 -8 13 -1 -7 -10
-13 -21 -13 -23 0 -23 1 -11 32 6 15 5 34 -3 53 -12 29 -13 29 -20 8 -4 -13
-13 -23 -21 -23 -13 0 -16 -53 -2 -66 4 -4 7 -20 7 -36 0 -15 4 -28 8 -28 8 0
32 -43 32 -55 0 -3 -7 -5 -15 -5 -14 0 -35 56 -35 94 0 16 -2 16 -18 -4 -10
-13 -34 -28 -53 -34 -31 -10 -34 -14 -34 -51 0 -37 -3 -41 -35 -51 -25 -8 -41
-23 -55 -50 -24 -46 -62 -63 -105 -47 -25 9 -30 9 -30 -3 0 -8 -4 -14 -10 -14
-5 0 -10 8 -10 18 0 21 -71 47 -81 30 -13 -21 -69 13 -120 72 -48 56 -91 78
-114 61 -5 -5 -27 -6 -49 -3 l-38 4 6 40 c6 39 5 41 -61 104 -37 36 -85 73
-105 84 -44 24 -54 38 -38 53 10 9 14 9 17 0 3 -7 11 -13 19 -13 13 0 12 5 -3
30 -9 17 -23 30 -30 30 -7 0 -13 5 -13 10 0 6 11 8 26 4 20 -5 25 -3 22 9 -5
24 16 23 27 -2 11 -23 38 -30 29 -7 -10 25 13 55 37 49 12 -4 25 0 29 8 5 7
12 10 16 6 12 -12 -18 -38 -37 -32 -11 4 -19 2 -19 -4 0 -6 5 -11 11 -11 7 0
9 -10 5 -26 -5 -18 -1 -33 11 -47 17 -20 17 -20 -2 -13 -32 12 -37 12 -42 -1
-5 -13 82 -112 90 -103 3 3 1 30 -5 60 -5 30 -11 62 -12 70 -1 8 -7 25 -14 36
-10 19 -9 23 9 27 11 3 23 15 26 27 3 12 13 20 22 19 9 -1 24 1 33 6 24 10 54
10 112 0 36 -6 47 -5 42 4 -4 6 -19 11 -33 11 -21 0 -24 2 -13 15 7 8 21 15
31 15 11 0 19 5 19 10 0 13 62 69 77 70 6 0 24 12 40 28 16 15 36 32 44 37 48
30 78 55 124 101 27 27 73 65 100 84 28 18 70 54 95 79 l45 46 -43 3 c-34 3
-53 -3 -90 -27 -26 -17 -53 -36 -60 -42 -43 -36 -329 -73 -452 -59 -85 11
-150 30 -175 54 -11 10 -34 24 -51 32 -17 7 -36 20 -44 28 -7 9 -22 16 -33 16
-47 0 -228 70 -234 91 -2 8 -29 24 -59 34 -30 10 -54 22 -54 27 0 4 -9 8 -20
8 -12 0 -30 9 -41 19 -11 10 -40 24 -64 30 -24 6 -47 15 -50 21 -3 5 -19 10
-36 10 -26 0 -65 15 -79 30 -10 12 -80 28 -80 19 0 -5 -5 -9 -12 -9 -6 0 -3 9
7 20 10 11 24 20 32 20 16 0 16 5 3 31 -19 34 -75 49 -189 49 l-106 0 2 -57z
m2694 -64 l-11 -34 5 34 c3 18 6 45 6 60 l2 26 4 -26 c2 -15 -1 -42 -6 -60z
m45 -61 c-5 -110 -4 -107 -15 -89 -9 13 -5 138 5 169 10 33 14 3 10 -80z m979
-18 c-3 -5 -13 -10 -21 -10 -8 0 -12 5 -9 10 3 6 13 10 21 10 8 0 12 -4 9 -10z
m-3451 -48 c-1 -6 -2 -149 -2 -317 -2 -264 -4 -305 -17 -305 -13 0 -15 42 -15
321 0 300 1 320 18 317 9 -2 17 -9 16 -16z m374 -173 c75 -40 155 -86 177
-103 21 -17 45 -30 52 -28 7 2 13 -2 13 -8 0 -6 -4 -8 -10 -5 -5 3 -10 -3 -10
-14 0 -12 -4 -21 -8 -21 -5 0 -14 -12 -21 -26 -11 -25 -13 -25 -34 -10 -12 9
-29 19 -37 23 -8 4 -17 9 -20 13 -11 13 -83 50 -88 45 -6 -6 -9 -3 50 -42 25
-17 55 -34 66 -37 30 -10 47 -33 34 -48 -9 -12 -25 -68 -26 -93 -1 -6 -58 -11
-143 -13 l-143 -3 0 221 c0 121 3 220 6 220 3 0 67 -32 142 -71z m-447 -153
c-3 -14 -6 -15 -12 -4 -4 7 -5 59 -1 113 l7 100 5 -95 c3 -52 3 -103 1 -114z
m3257 159 c32 -14 42 -24 42 -42 0 -19 4 -22 23 -18 33 8 45 -5 50 -56 2 -25
13 -61 23 -80 9 -19 18 -57 19 -84 1 -28 7 -61 14 -73 7 -13 10 -29 8 -36 -12
-30 50 -428 80 -515 8 -24 11 -47 6 -50 -4 -3 -9 -19 -10 -35 0 -16 -5 -31
-10 -35 -4 -3 -17 -23 -27 -43 -11 -21 -26 -38 -35 -38 -14 0 -14 -2 -1 -10
12 -7 12 -12 2 -22 -6 -6 -12 -20 -12 -29 0 -9 -7 -22 -15 -29 -8 -7 -15 -21
-15 -30 0 -21 -45 -60 -68 -60 -9 0 -23 -7 -32 -15 -13 -11 -24 -12 -53 -4
-40 11 -60 8 -122 -20 -70 -32 -153 -52 -155 -38 -11 71 -11 77 4 83 9 3 14
10 11 14 -3 5 -1 11 5 15 14 9 12 34 -4 51 -8 7 -12 23 -9 35 5 19 4 20 -16 9
-13 -6 -25 -9 -28 -6 -9 9 25 36 45 36 22 0 78 53 88 82 11 35 -70 165 -106
172 -8 1 -33 11 -55 21 -22 10 -45 17 -51 16 -6 -1 -15 18 -19 41 l-8 43 -8
-30 c-5 -19 -7 5 -5 65 2 66 9 108 22 137 23 51 32 55 26 12 l-5 -32 33 19
c29 18 90 83 90 98 0 4 -16 4 -35 0 -39 -7 -40 -6 -23 31 13 30 38 33 45 5 12
-45 39 -2 34 55 -3 36 -22 52 -77 66 l-42 11 20 51 c12 29 24 60 29 69 5 10 9
24 9 31 0 24 50 109 77 131 52 42 79 52 140 51 33 -1 78 -10 101 -20z m-503
-185 c3 -5 1 -10 -4 -10 -6 0 -11 5 -11 10 0 6 2 10 4 10 3 0 8 -4 11 -10z
m-2055 -65 c11 -13 8 -15 -13 -15 -26 0 -42 12 -30 24 11 11 30 7 43 -9z m-45
-45 c3 -5 2 -10 -4 -10 -5 0 -13 5 -16 10 -3 6 -2 10 4 10 5 0 13 -4 16 -10z
m333 -49 l24 -24 -24 8 c-13 4 -33 7 -45 7 -20 0 -23 5 -23 36 l0 35 22 -19
c13 -10 33 -30 46 -43z m2 48 c0 -6 7 -9 14 -6 10 4 13 1 10 -8 -5 -11 -10
-12 -25 -2 -20 13 -25 27 -9 27 6 0 10 -5 10 -11z m92 -79 c-75 -73 -99 -89
-62 -43 16 21 18 28 8 35 -9 6 -5 7 10 3 24 -7 29 4 10 23 -9 9 -8 12 8 12 10
0 30 9 44 20 14 11 32 20 40 20 8 0 -18 -31 -58 -70z m-407 40 c-3 -5 -10 -10
-16 -10 -5 0 -9 5 -9 10 0 6 7 10 16 10 8 0 12 -4 9 -10z m135 -21 c0 -5 -5
-9 -12 -9 -23 0 -98 -33 -98 -42 0 -6 7 -8 15 -5 21 9 29 -10 8 -21 -10 -5
-36 -13 -58 -17 -22 -4 -34 -10 -27 -12 22 -8 13 -31 -18 -42 -23 -7 -38 -6
-64 4 -19 8 -42 12 -51 9 -8 -4 -23 0 -32 7 -9 8 -14 10 -11 4 4 -6 -22 -10
-70 -9 -97 0 -105 2 -97 14 4 6 36 10 74 9 51 -1 76 3 109 20 38 19 42 24 30
38 -11 14 -9 15 19 9 33 -8 103 15 103 33 0 7 9 7 27 0 21 -8 28 -7 35 4 5 9
20 13 43 11 19 -1 37 2 40 6 7 11 35 2 35 -11z m90 11 c3 -1 -5 -5 -18 -10
-23 -10 -55 -3 -48 9 4 6 48 6 66 1z m19 -39 c25 -25 14 -35 -17 -15 -22 14
-25 14 -41 0 -10 -9 -22 -16 -28 -16 -6 0 -16 -7 -23 -15 -9 -11 -17 -12 -32
-4 -19 10 -18 11 7 35 18 16 33 23 46 19 10 -4 27 -2 36 4 25 14 30 14 52 -8z
m1965 10 c3 -5 -1 -14 -9 -21 -13 -10 -15 -9 -15 9 0 21 14 28 24 12z m-2416
-21 c6 0 12 -4 12 -8 0 -4 -16 -6 -35 -4 -19 2 -35 9 -35 14 0 6 10 8 23 4 12
-3 28 -6 35 -6z m513 -6 c12 -14 11 -16 -5 -13 -11 2 -21 10 -24 17 -5 17 13
15 29 -4z m1119 -22 c0 -18 -29 -41 -52 -42 -24 0 -23 21 3 54 17 21 24 24 35
15 8 -6 14 -18 14 -27z m-1258 -34 c-12 -12 -25 -18 -29 -14 -4 4 3 16 16 27
31 25 41 15 13 -13z m-903 -1 c-2 -1 -11 -8 -20 -15 -14 -10 -18 -10 -23 3 -4
11 1 15 21 15 14 0 24 -1 22 -3z m256 -12 c17 -2 35 -4 40 -5 6 -1 0 -5 -13
-11 -15 -5 -40 -5 -68 1 -25 6 -51 7 -57 3 -26 -17 -84 -33 -120 -33 -46 0
-41 15 9 24 24 5 34 12 31 20 -4 11 10 13 71 9 42 -2 91 -5 107 -8z m702 -11
c-9 -9 -28 6 -21 18 4 6 10 6 17 -1 6 -6 8 -13 4 -17z m43 10 c0 -8 -4 -12
-10 -9 -5 3 -10 10 -10 16 0 5 5 9 10 9 6 0 10 -7 10 -16z m55 6 c-3 -5 -11
-10 -16 -10 -6 0 -7 5 -4 10 3 6 11 10 16 10 6 0 7 -4 4 -10z m-270 -20 c3 -5
1 -10 -4 -10 -6 0 -11 5 -11 10 0 6 2 10 4 10 3 0 8 -4 11 -10z m1345 -12 c0
-16 -3 -19 -11 -11 -6 6 -8 16 -5 22 11 17 16 13 16 -11z m-2242 -12 c-15 -12
-48 -77 -48 -95 0 -6 -7 -11 -15 -11 -8 0 -15 5 -15 10 0 6 4 10 8 10 4 0 13
14 19 31 11 28 10 32 -7 36 -11 3 -20 10 -20 15 0 5 8 7 18 4 9 -3 23 -2 30 3
7 4 20 8 29 8 13 0 14 -2 1 -11z m852 4 c0 -5 -4 -10 -10 -10 -5 0 -10 5 -10
10 0 6 5 10 10 10 6 0 10 -4 10 -10z m1510 -15 c0 -18 -5 -25 -20 -25 -20 0
-28 28 -13 43 15 16 33 6 33 -18z m-2150 -35 c-57 -51 -65 -43 -10 10 23 22
45 38 48 35 4 -3 -14 -23 -38 -45z m845 40 c3 -5 1 -10 -4 -10 -6 0 -11 5 -11
10 0 6 2 10 4 10 3 0 8 -4 11 -10z m-615 -10 c0 -13 -11 -13 -30 0 -12 8 -11
10 8 10 12 0 22 -4 22 -10z m1795 -12 c4 -4 -9 -37 -28 -75 -37 -73 -57 -130
-37 -103 9 12 10 9 5 -15 -4 -16 -13 -34 -21 -38 -8 -5 -14 -24 -14 -49 0 -43
-21 -78 -47 -78 -10 0 -11 5 -4 19 8 14 7 20 -4 25 -18 6 -20 32 -3 42 6 4 8
3 4 -4 -3 -6 -2 -13 4 -17 6 -4 10 14 10 49 0 31 5 56 10 56 6 0 10 6 10 13 0
6 9 23 20 37 20 26 28 86 10 75 -15 -9 -12 7 9 40 18 30 58 42 76 23z m-2495
-18 c0 -5 -2 -10 -4 -10 -3 0 -8 5 -11 10 -3 6 -1 10 4 10 6 0 11 -4 11 -10z
m330 6 c0 -2 -8 -10 -17 -17 -16 -13 -17 -12 -4 4 13 16 21 21 21 13z m25 -16
c-3 -5 -11 -10 -16 -10 -6 0 -7 5 -4 10 3 6 11 10 16 10 6 0 7 -4 4 -10z m495
-6 c0 -14 7 -16 40 -11 33 4 39 3 30 -8 -11 -13 -67 -14 -89 -1 -16 10 -14 36
4 36 8 0 15 -7 15 -16z m55 6 c-3 -5 -10 -10 -16 -10 -5 0 -9 5 -9 10 0 6 7
10 16 10 8 0 12 -4 9 -10z m55 0 c0 -5 -4 -10 -10 -10 -5 0 -10 5 -10 10 0 6
5 10 10 10 6 0 10 -4 10 -10z m1660 -2 c-1 -32 -23 -103 -50 -163 -16 -36 -30
-69 -30 -74 0 -5 -7 -14 -15 -21 -21 -17 -45 -69 -45 -96 0 -22 -4 -24 -50
-23 -50 2 -50 2 -35 23 8 11 29 49 46 84 17 35 34 61 36 58 3 -2 18 7 33 21
25 22 27 28 18 49 -14 30 13 89 44 98 19 5 21 8 8 16 -13 9 -12 12 4 25 24 18
36 19 36 3z m-2352 -16 c-31 -44 -69 -84 -75 -79 -3 3 11 23 31 44 20 21 36
41 36 46 0 4 5 7 11 7 6 0 5 -7 -3 -18z m919 3 c8 -22 -6 -33 -17 -15 -13 20
-12 30 0 30 6 0 13 -7 17 -15z m-1184 -1 c9 -10 -4 -34 -19 -34 -16 0 -16 2
-8 24 6 17 16 20 27 10z m1096 -10 c17 -12 20 -19 11 -28 -8 -8 -15 -6 -26 9
-9 11 -20 19 -25 17 -6 -1 -8 2 -4 8 9 14 17 13 44 -6z m-483 -5 c4 -7 21 -9
45 -5 22 3 39 2 39 -3 0 -11 -74 -21 -78 -9 -2 4 -16 8 -30 8 -21 0 -24 2 -12
10 20 13 27 12 36 -1z m354 -14 c0 -8 -4 -15 -10 -15 -5 0 -10 7 -10 15 0 8 5
15 10 15 6 0 10 -7 10 -15z m70 0 c0 -8 -4 -15 -10 -15 -5 0 -10 7 -10 15 0 8
5 15 10 15 6 0 10 -7 10 -15z m-1093 -17 c-3 -8 -6 -5 -6 6 -1 11 2 17 5 13 3
-3 4 -12 1 -19z m813 3 c0 -9 -90 -24 -98 -17 -5 6 54 24 81 25 9 1 17 -3 17
-8z m-347 -39 c0 -11 9 -23 19 -25 21 -6 25 -27 5 -27 -32 0 -54 38 -48 85 2
16 22 -11 24 -33z m772 28 c3 -5 2 -10 -4 -10 -5 0 -13 5 -16 10 -3 6 -2 10 4
10 5 0 13 -4 16 -10z m-103 -20 c99 -20 101 -21 91 -31 -6 -6 -30 -4 -68 6
-33 8 -88 15 -123 15 -39 0 -61 4 -57 10 8 13 90 13 157 0z m1225 -22 c-3 -8
-6 -5 -6 6 -1 11 2 17 5 13 3 -3 4 -12 1 -19z m-2269 -5 c-2 -10 -11 -19 -21
-21 -16 -3 -17 -1 -5 17 16 25 31 27 26 4z m2947 -3 c3 -5 -1 -10 -9 -10 -9 0
-16 5 -16 10 0 6 4 10 9 10 6 0 13 -4 16 -10z m-3065 -10 c0 -5 -5 -10 -11
-10 -5 0 -7 5 -4 10 3 6 8 10 11 10 2 0 4 -4 4 -10z m1370 -16 c0 -16 -16 -19
-25 -4 -8 13 4 32 16 25 5 -4 9 -13 9 -21z m-114 -11 c77 -32 71 -41 -13 -17
-32 9 -75 18 -95 21 -21 3 -38 9 -38 14 0 18 82 8 146 -18z m-1039 -30 c-3
-10 -5 -4 -5 12 0 17 2 24 5 18 2 -7 2 -21 0 -30z m2588 1 c-6 -44 -28 -87
-66 -128 -50 -52 -89 -108 -96 -135 -3 -14 -10 -32 -16 -39 -6 -7 -20 -34 -33
-60 -28 -57 -42 -75 -71 -91 -13 -6 -23 -17 -23 -24 0 -16 -70 -63 -87 -59 -7
2 -13 -3 -13 -11 0 -17 -44 -59 -53 -50 -4 3 -25 -4 -47 -16 -22 -12 -40 -18
-40 -12 0 5 5 13 10 16 6 3 10 21 10 39 0 23 10 44 30 67 16 19 30 37 30 42 0
4 7 7 15 7 8 0 15 5 15 10 0 6 7 10 15 10 8 0 15 7 15 15 0 8 5 15 10 15 6 0
10 7 10 15 0 8 5 15 11 15 6 0 9 6 6 14 -7 17 50 99 63 91 5 -3 12 4 15 15 4
12 19 27 33 33 29 13 102 86 102 102 0 5 5 3 10 -5 6 -10 10 -11 10 -2 0 6 7
12 15 12 9 0 12 -6 8 -17 -5 -15 -3 -16 7 -6 11 10 11 15 0 28 -12 14 -10 20
13 41 15 14 27 29 27 34 0 6 12 11 28 11 16 1 20 3 10 6 -21 5 -21 8 -8 34 19
34 40 24 35 -17z m-2240 16 c3 -5 2 -10 -4 -10 -5 0 -13 5 -16 10 -3 6 -2 10
4 10 5 0 13 -4 16 -10z m-205 -20 c0 -5 -4 -10 -10 -10 -5 0 -10 5 -10 10 0 6
5 10 10 10 6 0 10 -4 10 -10z m880 -28 c13 -13 13 -14 -3 -8 -10 3 -30 6 -43
6 -15 0 -24 6 -24 15 0 19 47 10 70 -13z m1817 4 c-4 -10 0 -12 14 -9 10 3 19
10 19 15 0 5 10 8 23 6 28 -4 38 -56 13 -70 -9 -5 -16 -14 -16 -19 0 -15 -26
-39 -42 -39 -7 0 -21 -9 -31 -20 -14 -17 -24 -19 -78 -13 -60 6 -62 5 -57 -15
4 -12 0 -26 -8 -33 -16 -14 -19 -55 -3 -64 16 -10 -20 -45 -47 -45 -19 0 -24
8 -33 49 -13 62 4 147 31 154 12 4 16 11 12 22 -4 10 -13 14 -23 10 -9 -3 -4
6 11 21 24 24 29 26 44 13 16 -13 17 -12 10 14 -6 27 -6 27 36 21 24 -4 44
-10 46 -14 2 -4 19 1 40 11 43 23 46 23 39 5z m-1833 -47 c-3 -5 -10 -7 -15
-3 -5 3 -7 10 -3 15 3 5 10 7 15 3 5 -3 7 -10 3 -15z m-346 4 c-10 -2 -26 -2
-35 0 -10 3 -2 5 17 5 19 0 27 -2 18 -5z m283 -71 c-7 -2 -21 4 -31 13 -17 16
-19 16 -29 -3 -7 -13 -7 -22 1 -30 9 -9 8 -12 -5 -12 -9 0 -17 8 -17 17 0 9
-10 28 -22 41 -22 24 -20 25 23 7 12 -4 18 1 23 17 6 23 7 23 38 -11 20 -22
27 -36 19 -39z m309 58 c0 -5 -4 -10 -10 -10 -5 0 -10 5 -10 10 0 6 5 10 10
10 6 0 10 -4 10 -10z m-220 -16 c0 -8 -5 -12 -10 -9 -6 4 -8 11 -5 16 9 14 15
11 15 -7z m-370 -4 c0 -5 -7 -10 -15 -10 -8 0 -15 5 -15 10 0 6 7 10 15 10 8
0 15 -4 15 -10z m470 0 c8 -5 12 -11 9 -14 -3 -3 -14 1 -25 9 -21 16 -8 20 16
5z m-346 -30 c17 0 66 -38 66 -51 0 -6 -20 4 -45 21 -25 17 -45 36 -44 43 0 9
2 9 6 0 2 -7 10 -13 17 -13z m-737 -12 c-3 -8 -6 -5 -6 6 -1 11 2 17 5 13 3
-3 4 -12 1 -19z m621 8 c-15 -8 -36 -12 -48 -9 -11 3 -20 0 -20 -6 0 -6 -9
-11 -21 -11 -12 0 -19 5 -17 13 5 13 45 24 98 26 l35 1 -27 -14z m76 -11 c16
-12 17 -15 4 -15 -8 0 -21 7 -28 15 -16 19 -1 19 24 0z m391 -43 c-8 -8 -35
20 -35 37 1 12 5 11 21 -8 11 -13 17 -26 14 -29z m-960 28 c3 -5 -1 -10 -9
-10 -9 0 -16 5 -16 10 0 6 4 10 9 10 6 0 13 -4 16 -10z m113 -18 c2 -7 -2 -10
-12 -6 -9 3 -16 11 -16 16 0 13 23 5 28 -10z m-102 -32 c8 0 14 -4 14 -10 0
-16 -36 -11 -51 7 -12 15 -12 16 4 10 10 -4 25 -7 33 -7z m1814 -65 c0 -14 -3
-15 -13 -6 -8 6 -17 9 -20 6 -4 -3 -5 -2 -2 2 3 3 0 12 -5 18 -6 7 -8 20 -4
29 5 14 9 12 25 -8 10 -13 19 -32 19 -41z m-592 22 c10 -9 24 -17 30 -17 27 0
103 -146 85 -164 -2 -2 -8 -28 -13 -58 -7 -48 -17 -84 -41 -143 -21 -53 -58
-152 -64 -172 -3 -13 -12 -23 -19 -23 -8 0 -19 -15 -27 -32 -7 -18 -32 -51
-55 -73 -24 -22 -44 -49 -46 -59 -2 -11 -16 -27 -32 -36 -16 -8 -34 -24 -40
-35 -15 -26 -46 -55 -60 -55 -13 0 -46 -35 -46 -49 0 -5 -13 -14 -30 -21 -24
-10 -30 -18 -30 -44 0 -51 -10 -75 -28 -69 -10 2 -5 -3 10 -13 22 -15 48 -52
48 -69 0 -3 -31 -5 -70 -5 -62 0 -70 2 -70 19 0 13 -10 20 -31 25 -50 10 -124
7 -136 -5 -6 -6 -26 -14 -45 -18 -18 -4 -32 -13 -31 -19 2 -7 -8 -12 -21 -12
-14 0 -27 -4 -30 -9 -3 -5 -65 -10 -137 -10 -73 -1 -136 -3 -142 -4 -6 -1 -17
12 -26 28 -9 17 -19 31 -23 33 -15 7 -8 54 11 81 10 14 21 37 22 51 3 15 15
30 31 38 24 11 26 15 16 37 -9 21 -8 29 9 48 19 20 44 81 48 117 1 8 14 42 29
75 16 33 28 70 28 82 0 12 9 30 19 39 11 9 19 23 19 31 0 7 6 13 14 13 8 0 17
8 21 19 3 10 14 26 25 36 11 10 20 25 20 32 0 17 33 63 76 107 17 17 39 47 49
66 20 39 110 133 138 143 9 3 17 11 17 17 0 15 47 32 98 35 24 2 49 8 56 14 6
5 27 13 46 16 18 3 38 9 44 12 23 15 86 22 173 19 70 -1 96 -6 111 -19z m1816
-72 c-4 -15 -2 -25 5 -25 17 0 13 -20 -5 -27 -23 -9 -34 15 -22 48 12 36 31
39 22 4z m-1030 -32 c-8 -31 -22 -53 -35 -53 -16 0 -10 26 12 54 26 33 31 33
23 -1z m-2095 -23 c55 -14 92 -17 139 -13 44 4 63 3 59 -4 -4 -6 -20 -13 -35
-16 -16 -3 -47 -23 -68 -44 -53 -52 -119 -86 -154 -78 -24 5 -29 13 -34 50 -6
38 -3 71 10 113 2 6 5 12 6 12 2 0 36 -9 77 -20z m2978 -66 c-3 -3 -12 -4 -19
-1 -8 3 -5 6 6 6 11 1 17 -2 13 -5z m58 -24 c3 -5 -1 -10 -9 -10 -9 0 -16 5
-16 10 0 6 4 10 9 10 6 0 13 -4 16 -10z m-108 -6 c-3 -3 -12 -4 -19 -1 -8 3
-5 6 6 6 11 1 17 -2 13 -5z m-56 -81 c0 -27 1 -27 9 -5 9 20 16 22 83 22 48 0
78 -5 85 -13 6 -7 12 -35 14 -62 3 -50 3 -50 -33 -59 -46 -11 -124 17 -145 54
l-15 25 4 -26 c3 -24 0 -28 -32 -33 -51 -8 -71 -7 -71 3 0 5 9 11 21 13 22 3
44 37 54 81 3 15 10 27 15 27 6 0 10 -12 11 -27z m-876 -129 c0 -24 -5 -30
-27 -32 -25 -3 -28 0 -28 27 0 20 6 31 18 34 29 8 37 2 37 -29z m1102 10 c-3
-3 -12 -4 -19 -1 -8 3 -5 6 6 6 11 1 17 -2 13 -5z m448 -34 c7 -11 -16 -11
-60 0 -28 7 -28 8 12 9 23 0 45 -3 48 -9z m-1325 -51 c0 -5 -4 -9 -10 -9 -5 0
-10 7 -10 16 0 8 5 12 10 9 6 -3 10 -10 10 -16z m-40 -9 c0 -5 -8 -10 -17 -10
-15 0 -16 2 -3 10 19 12 20 12 20 0z m-80 -20 c0 -5 -5 -10 -11 -10 -5 0 -7 5
-4 10 3 6 8 10 11 10 2 0 4 -4 4 -10z m-204 -37 c-10 -10 -19 5 -10 18 6 11 8
11 12 0 2 -7 1 -15 -2 -18z m14 -31 c0 -5 -7 -17 -15 -28 -14 -19 -14 -19 -15
2 0 11 3 24 7 27 9 10 23 9 23 -1z m-2178 -84 c-15 -15 -26 -4 -18 18 5 13 9
15 18 6 9 -9 9 -15 0 -24z m178 -2 c0 -2 -7 -9 -15 -16 -13 -11 -14 -10 -9 4
5 14 24 23 24 12z m74 -27 c-3 -5 -10 -7 -15 -3 -5 3 -7 10 -3 15 3 5 10 7 15
3 5 -3 7 -10 3 -15z m8 -70 c4 -19 4 -44 1 -57 -3 -12 0 -29 7 -37 10 -12 10
-18 0 -30 -10 -12 -10 -18 1 -32 8 -9 14 -38 14 -65 0 -39 -3 -48 -17 -48 -10
0 -18 -6 -18 -14 0 -15 -58 -66 -76 -66 -7 0 -14 -6 -16 -12 -7 -19 -108 -20
-108 -2 0 8 5 14 12 14 6 0 8 3 4 8 -7 7 -12 8 -38 11 -7 1 -5 8 5 19 10 10
17 23 17 29 0 5 12 23 27 39 15 16 28 34 28 39 0 6 9 28 19 50 10 22 19 55 19
73 0 18 4 35 8 38 5 3 9 -2 9 -10 0 -9 5 -16 10 -16 16 0 12 27 -5 34 -23 8
-18 25 10 36 14 5 25 17 25 28 0 10 3 22 7 25 13 14 48 -21 55 -54z m28 -299
c0 -5 -4 -10 -10 -10 -5 0 -10 5 -10 10 0 6 5 10 10 10 6 0 10 -4 10 -10z
m1120 -100 c0 -5 19 -10 42 -10 39 0 41 -1 22 -15 -18 -14 -16 -14 21 -10 22
2 34 2 27 -1 -10 -5 -10 -9 -1 -20 13 -16 1 -18 -21 -4 -8 5 -19 5 -25 0 -6
-5 -25 4 -48 25 -38 34 -45 45 -27 45 6 0 10 -4 10 -10z m196 -74 c17 -7 44 3
44 15 0 5 7 9 15 9 8 0 15 5 15 10 0 6 11 10 25 10 14 0 25 -4 25 -10 0 -5 8
-18 19 -29 15 -15 17 -28 13 -70 -4 -43 -2 -51 12 -51 15 0 15 -3 1 -36 -18
-45 -18 -44 0 -44 21 0 35 -33 35 -86 0 -67 -23 -82 -61 -40 l-28 31 6 -36 c5
-35 4 -36 -32 -42 -47 -8 -70 0 -54 19 6 7 9 19 6 26 -4 8 -6 7 -6 -4 -1 -10
-5 -18 -10 -18 -13 0 -65 69 -58 76 3 3 10 -4 17 -15 20 -38 32 -24 25 28 -6
45 -5 49 17 54 17 5 29 -1 50 -23 15 -17 32 -30 37 -30 13 0 15 27 2 34 -5 3
-8 17 -8 31 0 14 -9 36 -20 48 -11 12 -29 41 -39 64 -26 57 -46 57 -38 1 l7
-43 -22 19 c-11 11 -21 24 -21 30 0 6 -8 22 -17 36 -22 32 -27 74 -7 66 8 -3
14 0 15 7 0 7 5 2 11 -10 6 -12 17 -24 24 -27z m-1296 -46 c12 19 72 -19 84
-53 15 -43 -1 -44 -44 -2 -43 42 -62 42 -35 1 18 -27 6 -36 -17 -12 -8 7 -30
19 -51 27 -20 7 -37 18 -37 25 0 7 -10 9 -25 6 -19 -3 -25 0 -25 13 0 14 6 16
28 12 15 -3 34 -2 42 3 9 6 24 1 43 -12 23 -16 31 -18 37 -8z m170 -131 c0
-10 -4 -19 -9 -19 -10 0 -21 36 -14 44 10 10 23 -5 23 -25z m1160 6 c0 -18 -5
-25 -20 -25 -20 0 -28 28 -13 43 15 16 33 6 33 -18z m-1445 -15 c4 -6 10 -8
15 -5 13 8 40 -24 40 -47 0 -17 2 -18 15 -8 12 10 19 10 28 1 12 -12 17 -81 6
-81 -4 0 -10 -11 -13 -25 -7 -28 -21 -33 -30 -10 -7 19 -26 20 -26 1 0 -7 -8
-16 -17 -19 -10 -2 -25 -8 -35 -12 -11 -4 -18 0 -23 15 -4 12 -12 19 -18 17
-22 -7 -48 29 -41 57 5 21 3 25 -9 20 -9 -3 -18 -12 -21 -20 -9 -23 -26 -16
-22 9 3 12 5 26 5 32 1 5 6 4 13 -3 7 -7 15 -12 20 -12 12 0 36 54 30 69 -3
10 0 12 12 8 10 -4 19 -1 22 8 7 17 40 20 49 5z m179 -41 c-3 -5 -12 -9 -20
-9 -11 0 -13 6 -9 20 4 12 2 20 -5 20 -6 0 -8 5 -4 12 5 8 13 4 26 -11 10 -13
15 -27 12 -32z m-410 26 c-7 -17 -20 -20 -28 -6 -4 5 0 12 6 14 23 9 28 7 22
-8z m2025 -189 c2 -45 -6 -27 -12 29 -4 34 -3 42 3 25 4 -14 8 -38 9 -54z
m-2039 24 c0 -5 -7 -7 -15 -4 -8 4 -15 8 -15 10 0 2 7 4 15 4 8 0 15 -4 15
-10z m1860 -6 c0 -8 -4 -12 -10 -9 -5 3 -10 10 -10 16 0 5 5 9 10 9 6 0 10 -7
10 -16z m-1800 -20 c0 -2 -7 -4 -15 -4 -8 0 -15 4 -15 10 0 5 7 7 15 4 8 -4
15 -8 15 -10z m1690 6 c0 -5 -2 -10 -4 -10 -3 0 -8 5 -11 10 -3 6 -1 10 4 10
6 0 11 -4 11 -10z"/>
<path d="M1192 3650 c7 -10 14 -18 15 -16 6 6 -9 36 -18 36 -5 0 -4 -9 3 -20z"/>
<path d="M1000 3563 c0 -5 28 -18 63 -29 34 -11 71 -24 82 -28 11 -4 -5 6 -35
22 -59 31 -110 47 -110 35z"/>
<path d="M1093 3473 c9 -2 23 -2 30 0 6 3 -1 5 -18 5 -16 0 -22 -2 -12 -5z"/>
<path d="M3630 3454 c1 -30 54 -129 69 -129 23 0 24 -23 2 -30 -24 -7 -28 -30
-6 -39 8 -3 15 -11 15 -19 0 -22 66 -47 123 -47 41 0 55 4 65 20 7 11 21 20
32 20 15 0 20 7 20 28 0 35 -21 55 -75 73 -22 7 -44 18 -50 24 -5 6 -19 16
-30 23 -48 26 52 24 118 -3 12 -5 16 -3 12 7 -10 25 -65 50 -143 64 -162 29
-152 28 -152 8z m185 -124 c3 -5 -3 -10 -15 -10 -12 0 -18 5 -15 10 3 6 10 10
15 10 5 0 12 -4 15 -10z m-20 -40 c11 -13 14 -20 6 -20 -18 0 -51 19 -51 30 0
17 26 11 45 -10z"/>
<path d="M3418 3123 c-2 -4 -1 -28 3 -53 3 -25 7 -36 8 -25 1 16 3 17 10 6 5
-8 6 -21 3 -30 -5 -14 -3 -14 20 1 15 10 33 15 41 12 15 -5 31 21 22 37 -3 4
8 3 25 -2 16 -6 30 -15 30 -20 0 -12 37 -11 45 1 3 6 2 10 -4 10 -6 0 -27 11
-47 25 -42 28 -89 33 -102 9 -8 -14 -12 -12 -30 10 -11 15 -22 23 -24 19z"/>
<path d="M1148 3403 c-10 -2 -18 -9 -18 -14 0 -13 13 -11 36 6 19 14 14 17
-18 8z"/>
<path d="M2940 2956 c0 -2 7 -7 16 -10 8 -3 12 -2 9 4 -6 10 -25 14 -25 6z"/>
<path d="M1320 1900 c0 -5 5 -10 10 -10 6 0 10 5 10 10 0 6 -4 10 -10 10 -5 0
-10 -4 -10 -10z"/>
<path d="M1200 1689 c0 -5 5 -7 10 -4 6 3 10 8 10 11 0 2 -4 4 -10 4 -5 0 -10
-5 -10 -11z"/>
<path d="M318 2021 c-2 -24 1 -37 7 -34 14 5 19 73 6 73 -5 0 -11 -17 -13 -39z"/>
<path d="M216 1714 c-11 -7 -16 -17 -13 -21 4 -4 15 1 24 10 22 21 14 30 -11
11z"/>
<path d="M240 1685 c0 -8 5 -15 10 -15 6 0 10 7 10 15 0 8 -4 15 -10 15 -5 0
-10 -7 -10 -15z"/>
<path d="M2763 4218 c-18 -24 -24 -38 -16 -38 11 1 46 50 35 50 -5 0 -14 -6
-19 -12z"/>
<path d="M2820 4219 c0 -5 5 -7 10 -4 6 3 10 8 10 11 0 2 -4 4 -10 4 -5 0 -10
-5 -10 -11z"/>
<path d="M2910 4221 c0 -5 9 -7 20 -4 11 3 20 7 20 9 0 2 -9 4 -20 4 -11 0
-20 -4 -20 -9z"/>
<path d="M2952 4205 c-9 -20 -9 -25 2 -25 7 0 18 11 24 25 9 20 9 25 -2 25 -7
0 -18 -11 -24 -25z"/>
<path d="M3006 4214 c-9 -23 -2 -28 13 -10 7 8 8 17 3 20 -6 3 -13 -1 -16 -10z"/>
<path d="M3190 4211 c0 -12 6 -21 15 -21 8 0 15 4 15 9 0 5 -7 14 -15 21 -13
10 -15 9 -15 -9z"/>
<path d="M3230 4219 c0 -5 5 -7 10 -4 6 3 10 8 10 11 0 2 -4 4 -10 4 -5 0 -10
-5 -10 -11z"/>
<path d="M2876 4185 c4 -8 10 -12 15 -9 14 8 10 24 -6 24 -9 0 -12 -6 -9 -15z"/>
<path d="M3280 4180 c0 -9 31 -30 44 -30 4 0 1 9 -6 20 -13 21 -38 27 -38 10z"/>
<path d="M2850 4169 c0 -5 5 -7 10 -4 6 3 10 8 10 11 0 2 -4 4 -10 4 -5 0 -10
-5 -10 -11z"/>
<path d="M2716 4155 c-9 -26 -7 -32 5 -12 6 10 9 21 6 23 -2 3 -7 -2 -11 -11z"/>
<path d="M2916 4161 c-3 -5 1 -11 9 -15 9 -3 15 0 15 9 0 16 -16 20 -24 6z"/>
<path d="M2970 4149 c0 -5 5 -7 10 -4 6 3 10 8 10 11 0 2 -4 4 -10 4 -5 0 -10
-5 -10 -11z"/>
<path d="M2845 4141 c-11 -5 -26 -22 -34 -37 -7 -16 -17 -37 -22 -46 -6 -11
-5 -18 0 -18 5 0 14 13 19 29 6 16 19 34 30 40 15 8 41 44 29 40 -1 0 -11 -4
-22 -8z"/>
<path d="M3300 4131 c0 -17 18 -21 24 -6 3 9 0 15 -9 15 -8 0 -15 -4 -15 -9z"/>
<path d="M2912 4118 c-6 -6 -12 -19 -12 -27 0 -13 2 -13 16 1 9 9 15 21 13 27
-3 9 -8 8 -17 -1z"/>
<path d="M3005 4070 c-3 -5 -1 -10 4 -10 6 0 11 5 11 10 0 6 -2 10 -4 10 -3 0
-8 -4 -11 -10z"/>
<path d="M2901 4054 c0 -11 3 -14 6 -6 3 7 2 16 -1 19 -3 4 -6 -2 -5 -13z"/>
<path d="M2878 4017 c-3 -19 -2 -25 4 -19 6 6 8 18 6 28 -3 14 -5 12 -10 -9z"/>
<path d="M3220 4030 c0 -5 5 -10 10 -10 6 0 10 5 10 10 0 6 -4 10 -10 10 -5 0
-10 -4 -10 -10z"/>
<path d="M3002 3980 c0 -14 2 -19 5 -12 2 6 2 18 0 25 -3 6 -5 1 -5 -13z"/>
<path d="M3230 3970 c0 -5 5 -10 11 -10 5 0 7 5 4 10 -3 6 -8 10 -11 10 -2 0
-4 -4 -4 -10z"/>
<path d="M2907 3924 c-4 -4 -7 -14 -7 -23 0 -11 3 -12 11 -4 6 6 10 16 7 23
-2 6 -7 8 -11 4z"/>
<path d="M2957 3924 c-8 -8 3 -34 14 -34 11 0 12 27 0 34 -4 3 -11 3 -14 0z"/>
<path d="M2902 3850 c-12 -33 -5 -100 10 -100 6 0 7 20 3 49 -4 31 -3 51 4 56
13 8 15 25 2 25 -5 0 -14 -13 -19 -30z"/>
<path d="M2967 3874 c-3 -6 -1 -28 5 -50 6 -21 13 -34 15 -28 6 17 -12 90 -20
78z"/>
<path d="M2750 3800 c0 -5 5 -10 11 -10 5 0 7 5 4 10 -3 6 -8 10 -11 10 -2 0
-4 -4 -4 -10z"/>
<path d="M3330 3799 c0 -5 5 -7 10 -4 6 3 10 8 10 11 0 2 -4 4 -10 4 -5 0 -10
-5 -10 -11z"/>
<path d="M2774 3770 c3 -8 9 -23 12 -32 4 -10 10 -18 15 -18 15 0 10 16 -12
41 -11 13 -18 17 -15 9z"/>
<path d="M3190 3764 c0 -8 5 -12 10 -9 6 4 8 11 5 16 -9 14 -15 11 -15 -7z"/>
<path d="M3430 3723 c0 -6 -12 -15 -27 -20 -16 -6 -22 -12 -16 -16 13 -8 61
28 51 39 -5 4 -8 2 -8 -3z"/>
<path d="M208 3633 c-28 -7 -21 -21 7 -15 14 2 25 8 25 13 0 9 -4 10 -32 2z"/>
<path d="M190 3571 c0 -6 4 -13 10 -16 6 -3 7 1 4 9 -7 18 -14 21 -14 7z"/>
<path d="M180 3521 c0 -12 6 -21 15 -21 8 0 15 4 15 9 0 5 -7 14 -15 21 -13
10 -15 9 -15 -9z"/>
<path d="M253 3499 c-30 -9 -46 -29 -23 -29 6 0 10 5 10 10 0 6 15 10 34 10
19 0 38 5 41 10 7 12 -18 12 -62 -1z"/>
<path d="M161 3394 c0 -11 3 -14 6 -6 3 7 2 16 -1 19 -3 4 -6 -2 -5 -13z"/>
<path d="M0 3368 c0 -19 2 -20 10 -8 13 19 13 30 0 30 -5 0 -10 -10 -10 -22z"/>
<path d="M1450 3130 c0 -5 5 -10 10 -10 6 0 29 -20 52 -45 23 -24 45 -42 50
-39 4 3 -13 27 -39 55 -45 46 -73 61 -73 39z"/>
<path d="M140 2950 c-22 -6 -23 -8 -6 -15 11 -5 21 -3 26 5 4 7 13 9 20 5 9
-5 11 -4 6 3 -8 13 -10 13 -46 2z"/>
<path d="M79 2868 c-1 -2 -2 -17 -4 -34 -2 -26 0 -31 16 -27 23 6 25 33 3 33
-10 0 -14 6 -10 15 4 12 0 23 -5 13z"/>
<path d="M27 2716 c-4 -10 -5 -21 -2 -24 9 -9 17 6 13 25 -3 17 -4 17 -11 -1z"/>
<path d="M140 2671 c0 -11 5 -23 10 -26 6 -4 10 5 10 19 0 14 -4 26 -10 26 -5
0 -10 -9 -10 -19z"/>
<path d="M1 2664 c0 -11 3 -14 6 -6 3 7 2 16 -1 19 -3 4 -6 -2 -5 -13z"/>
<path d="M27 2624 c-4 -4 -7 -14 -7 -23 0 -11 3 -12 11 -4 6 6 10 16 7 23 -2
6 -7 8 -11 4z"/>
<path d="M84 2462 c1 -16 7 -36 14 -44 9 -12 10 -23 2 -44 -6 -15 -8 -40 -5
-54 6 -24 7 -24 21 -6 10 14 13 36 9 75 -8 87 -11 96 -27 99 -12 2 -15 -5 -14
-26z"/>
<path d="M20 2460 c0 -5 4 -10 9 -10 6 0 13 5 16 10 3 6 -1 10 -9 10 -9 0 -16
-4 -16 -10z"/>
<path d="M21 2364 c0 -11 3 -14 6 -6 3 7 2 16 -1 19 -3 4 -6 -2 -5 -13z"/>
<path d="M0 2276 c0 -9 5 -16 10 -16 6 0 10 4 10 9 0 6 -4 13 -10 16 -5 3 -10
-1 -10 -9z"/>
<path d="M67 2263 c-10 -9 -9 -23 2 -23 5 0 11 7 15 15 5 15 -5 20 -17 8z"/>
<path d="M136 2251 c-4 -7 -5 -15 -2 -18 9 -9 19 4 14 18 -4 11 -6 11 -12 0z"/>
<path d="M0 2204 c0 -8 5 -12 10 -9 6 4 8 11 5 16 -9 14 -15 11 -15 -7z"/>
<path d="M80 2201 c0 -12 5 -21 10 -21 6 0 10 6 10 14 0 8 -4 18 -10 21 -5 3
-10 -3 -10 -14z"/>
<path d="M3880 2201 c0 -16 39 -23 83 -15 38 7 40 8 17 15 -37 10 -100 10
-100 0z"/>
<path d="M3680 1740 c0 -3 -13 -11 -30 -17 -16 -6 -30 -16 -30 -22 0 -6 7 -8
15 -5 10 4 15 0 15 -13 0 -32 29 -62 71 -73 53 -15 78 4 71 52 -8 53 -28 76
-72 80 -22 2 -40 1 -40 -2z"/>
<path d="M4455 1695 c-33 -5 -93 -26 -133 -45 -81 -38 -94 -56 -113 -155 -5
-27 -18 -67 -29 -88 -11 -20 -20 -44 -20 -52 0 -8 -4 -15 -10 -15 -5 0 -10 -7
-10 -15 0 -9 -7 -18 -15 -21 -8 -4 -15 -13 -15 -20 0 -8 -8 -18 -17 -21 -20
-7 -42 -28 -46 -40 -1 -4 -8 -7 -15 -6 -8 0 -11 -5 -8 -14 4 -11 2 -13 -9 -10
-8 4 -21 0 -29 -8 -8 -8 -21 -15 -29 -15 -8 0 -25 -8 -38 -18 -27 -21 -55 -34
-84 -39 -42 -7 -182 -2 -220 8 -61 16 -164 68 -225 113 -65 48 -173 156 -205
206 -12 19 -29 41 -38 48 -9 8 -13 20 -10 28 5 15 -13 44 -28 44 -5 0 -9 -15
-9 -33 0 -38 50 -100 189 -235 97 -94 259 -222 282 -222 8 0 19 -4 24 -9 6 -5
18 -11 29 -13 11 -2 25 -21 35 -48 16 -42 16 -47 1 -63 -9 -9 -21 -17 -27 -17
-6 0 -24 -7 -39 -15 -16 -8 -45 -15 -64 -15 -60 0 -114 -20 -141 -51 l-26 -30
-6 30 c-4 17 -23 49 -43 71 -36 40 -38 40 -55 23 -21 -21 -82 -181 -73 -194 3
-5 0 -9 -5 -9 -6 0 -11 14 -11 30 0 23 -4 30 -20 30 -14 0 -20 -7 -20 -21 0
-19 -4 -20 -42 -13 -24 4 -51 8 -60 8 -23 0 -23 16 -1 16 10 0 0 9 -21 21 -34
18 -53 20 -137 17 -69 -2 -102 1 -111 10 -18 18 -34 15 -56 -13 -25 -31 -36
-32 -26 -2 6 21 6 21 -13 4 -11 -9 -23 -14 -26 -10 -4 3 -7 1 -7 -6 0 -6 8
-14 18 -17 9 -3 26 -10 37 -14 20 -9 152 -48 184 -55 9 -2 39 -11 66 -20 57
-18 233 -62 380 -95 55 -12 107 -26 116 -31 12 -6 25 4 53 41 36 48 38 49 61
34 13 -8 26 -22 29 -30 6 -17 -3 -44 -15 -44 -5 0 -9 -6 -9 -13 0 -19 202 -47
208 -29 2 7 13 12 25 12 12 0 50 9 84 19 35 11 65 15 68 10 4 -5 -5 -21 -19
-36 -15 -15 -26 -31 -26 -35 0 -15 15 -8 28 12 16 27 31 25 42 -4 9 -24 37
-46 59 -46 5 0 44 34 86 76 88 86 177 148 203 140 25 -8 58 47 38 63 -11 9
-15 9 -19 -1 -4 -10 -6 -10 -6 1 -1 11 -4 11 -15 2 -10 -9 -20 -9 -33 -3 -12
7 -25 7 -36 1 -23 -13 -22 -29 3 -29 29 0 24 -13 -12 -33 -18 -10 -55 -38 -83
-62 -56 -50 -66 -54 -58 -24 5 19 4 20 -15 10 -11 -6 -33 -11 -49 -11 -25 1
-26 2 -10 14 9 7 17 17 17 21 0 18 106 104 141 114 43 13 53 23 45 49 -4 13
-24 22 -67 31 -50 10 -59 15 -54 30 8 28 -45 92 -72 88 -13 -3 -24 1 -24 7 -5
37 -4 66 1 66 3 0 37 41 75 90 47 60 83 96 110 109 50 25 185 67 245 76 25 4
56 12 70 18 14 6 36 11 50 11 21 1 25 5 22 26 -1 14 4 30 13 36 13 10 15 36
13 165 l-3 154 -40 5 c-22 3 -67 1 -100 -5z m-55 -245 c0 -13 -7 -20 -20 -20
-23 0 -26 10 -8 28 18 18 28 15 28 -8z m-340 -314 c0 -2 -8 -10 -17 -17 -16
-13 -17 -12 -4 4 13 16 21 21 21 13z m-47 -60 c-25 -29 -43 -43 -80 -61 -18
-9 -33 -20 -33 -24 0 -15 -33 -22 -42 -9 -8 10 -11 10 -15 1 -7 -18 -74 -16
-101 3 -29 20 -28 30 6 38 15 4 35 9 45 12 16 5 18 2 12 -15 l-6 -21 46 20
c26 11 53 20 61 20 8 0 14 4 14 10 0 5 6 7 13 4 8 -3 27 8 43 23 34 34 65 33
37 -1z m-43 -100 c0 -3 -4 -8 -10 -11 -5 -3 -10 -1 -10 4 0 6 5 11 10 11 6 0
10 -2 10 -4z m20 -53 c0 -5 -7 -17 -15 -27 -11 -14 -12 -22 -4 -27 7 -4 1 -13
-17 -24 -16 -10 -41 -26 -56 -37 -20 -13 -28 -15 -28 -6 0 10 -2 10 -8 1 -4
-6 -18 -13 -32 -16 -14 -2 -19 -2 -12 0 17 6 15 32 -3 39 -22 9 -18 24 5 24
11 0 20 6 20 13 1 21 69 62 110 65 22 1 40 -1 40 -5z m-680 -49 c18 -36 20
-50 11 -67 -10 -20 -10 -20 -5 6 4 16 2 27 -5 27 -6 0 -11 -4 -11 -10 0 -21
-16 -9 -27 20 -11 30 -7 70 7 70 5 0 18 -21 30 -46z m-40 -45 c0 -11 -4 -17
-10 -14 -5 3 -10 13 -10 21 0 8 5 14 10 14 6 0 10 -9 10 -21z m170 8 c0 -2
-10 -12 -22 -23 l-23 -19 19 23 c18 21 26 27 26 19z m590 -13 c0 -11 6 -14 20
-9 14 4 20 2 20 -9 0 -8 -9 -20 -20 -26 -25 -13 -27 -35 -2 -25 9 3 31 8 47
11 25 4 23 1 -15 -16 -25 -12 -57 -24 -72 -27 -16 -3 -28 -9 -28 -14 0 -5 -17
-16 -37 -24 -35 -15 -39 -15 -50 1 -7 9 -10 21 -7 25 3 5 -3 9 -13 9 -11 0 -4
9 22 26 22 15 45 32 50 38 17 19 67 56 76 56 5 0 9 -7 9 -16z m-1290 -28 c0
-3 -4 -8 -10 -11 -5 -3 -10 -1 -10 4 0 6 5 11 10 11 6 0 10 -2 10 -4z m518
-17 c3 -12 2 -12 -6 0 -8 11 -10 11 -15 0 -4 -10 -6 -8 -6 4 -1 21 21 18 27
-4z m58 -25 c-4 -9 -9 -15 -11 -12 -3 3 -3 13 1 22 4 9 9 15 11 12 3 -3 3 -13
-1 -22z m391 -25 c-1 -19 -7 -27 -14 -24 -7 2 -13 1 -13 -4 0 -6 -24 -7 -49
-2 -2 1 8 11 23 22 15 12 25 27 22 34 -3 8 2 11 14 8 14 -4 18 -13 17 -34z
m-547 21 c0 -5 -2 -10 -4 -10 -3 0 -8 5 -11 10 -3 6 -1 10 4 10 6 0 11 -4 11
-10z m425 -60 c-16 -16 -34 -30 -39 -30 -10 1 53 60 63 60 3 0 -8 -13 -24 -30z
m15 -30 c0 -5 -5 -10 -11 -10 -5 0 -7 5 -4 10 3 6 8 10 11 10 2 0 4 -4 4 -10z
m153 -60 c-14 -13 -53 -22 -53 -12 0 5 12 22 28 37 27 27 27 27 30 5 2 -12 0
-26 -5 -30z"/>
<path d="M2640 1687 c0 -8 11 -19 25 -25 27 -12 33 -40 13 -60 -10 -10 -10
-15 1 -21 9 -6 10 -11 2 -15 -22 -14 -12 -36 17 -36 57 2 122 -19 147 -47 23
-28 24 -28 39 -8 8 11 13 32 12 47 -2 17 2 29 12 33 13 5 12 8 -3 25 -20 22
-13 40 14 33 21 -5 51 30 51 59 0 16 -5 15 -56 -7 -67 -30 -66 -30 -110 -9
-19 9 -37 14 -40 11 -3 -3 -31 3 -61 14 -67 23 -63 22 -63 6z m135 -57 c3 -5
-1 -10 -9 -10 -9 0 -16 5 -16 10 0 6 4 10 9 10 6 0 13 -4 16 -10z m-19 -39
c-3 -5 5 -12 19 -15 14 -4 25 -11 25 -16 0 -5 -12 -5 -30 1 -28 10 -43 39 -19
39 5 0 8 -4 5 -9z m94 -25 c0 -8 -4 -17 -9 -21 -12 -7 -24 12 -16 25 9 15 25
12 25 -4z"/>
<path d="M2260 1580 c0 -5 5 -10 10 -10 6 0 10 5 10 10 0 6 -4 10 -10 10 -5 0
-10 -4 -10 -10z"/>
<path d="M2211 1503 c0 -5 4 -17 9 -28 8 -18 9 -17 9 8 1 15 -3 27 -9 27 -5 0
-10 -3 -9 -7z"/>
<path d="M2480 1290 c0 -5 5 -10 10 -10 6 0 10 5 10 10 0 6 -4 10 -10 10 -5 0
-10 -4 -10 -10z"/>
<path d="M385 970 c-3 -5 -1 -10 4 -10 6 0 11 5 11 10 0 6 -2 10 -4 10 -3 0
-8 -4 -11 -10z"/>
<path d="M4403 873 c9 -2 23 -2 30 0 6 3 -1 5 -18 5 -16 0 -22 -2 -12 -5z"/>
<path d="M4569 794 c-15 -22 -51 -60 -80 -85 -28 -24 -64 -55 -78 -68 l-26
-23 40 23 c22 12 51 28 65 36 14 7 44 30 68 51 38 33 43 42 40 72 l-3 34 -26
-40z"/>
<path d="M4395 789 c-4 -6 -5 -12 -2 -15 2 -3 7 2 10 11 7 17 1 20 -8 4z"/>
<path d="M0 760 c0 -28 3 -30 34 -30 44 0 66 9 66 26 0 14 -11 18 -42 15 -10
-1 -26 3 -38 9 -18 10 -20 8 -20 -20z"/>
<path d="M3090 770 c0 -5 7 -10 15 -10 8 0 15 5 15 10 0 6 -7 10 -15 10 -8 0
-15 -4 -15 -10z"/>
<path d="M4320 585 c-14 -8 -20 -14 -15 -14 6 0 21 6 35 14 14 8 21 14 15 14
-5 0 -21 -6 -35 -14z"/>
<path d="M4198 544 c-9 -9 -27 -16 -40 -16 -21 0 -24 -5 -23 -29 1 -20 -4 -29
-18 -33 -11 -3 -16 -9 -12 -16 4 -7 10 -8 14 -4 3 5 24 19 45 30 23 13 44 35
52 53 14 34 7 40 -18 15z"/>
<path d="M1090 396 c0 -2 7 -6 15 -10 8 -3 15 -1 15 4 0 6 -7 10 -15 10 -8 0
-15 -2 -15 -4z"/>
<path d="M1191 333 c12 -20 91 -73 107 -73 6 0 15 -7 20 -15 4 -9 25 -18 47
-22 27 -4 36 -3 31 5 -4 7 -15 12 -24 12 -19 0 -68 47 -58 57 7 7 -12 33 -25
33 -5 0 -9 -7 -9 -15 0 -18 -2 -19 -45 -1 -19 8 -35 20 -35 25 0 6 -5 11 -10
11 -6 0 -6 -6 1 -17z"/>
<path d="M3825 330 c-16 -7 -17 -9 -3 -9 9 -1 20 4 23 9 7 11 7 11 -20 0z"/>
<path d="M1424 215 c-18 -14 -18 -14 7 -15 15 0 32 7 39 15 10 12 9 15 -7 15
-10 0 -28 -7 -39 -15z"/>
<path d="M3370 220 c-8 -5 -30 -10 -48 -10 -18 0 -40 -6 -48 -14 -7 -8 -19
-16 -26 -18 -7 -3 -9 -12 -5 -22 6 -15 14 -17 55 -12 83 12 222 60 222 78 0
11 -132 10 -150 -2z"/>
</g>
</svg>
